PathFileType	4	(X/Y/Z)	C:\Users\Caesar\Desktop\毕业设计\1-评估老年人缺少的力\Data\s4\S4_T_02_fixed.trc	Maker trajectories (.TRC) by Lee-Son ToolBox																																																																																				
DataRate	CameraRate	NumFrames	NumMarkers	Units	OrigDataRate	OrigDataStartFrame	OrigNumFrames																																																																																	
100	100	14	29	mm	100	1	1000																																																																																	
Frame#	Time	Unlabeled27			Unlabeled48			Unlabeled26			HEAD			C7			T10			STERN			LSHO			LELB			RSHO			RELB			LASI			RASI			LPSI			RPSI			LHIP			LTHI			LKNE			LTIB			LANK			LHEE			LTOE			RHIP			RTHI			RKNE			RTIB			RANK			RHEE			RTOE		
		X1	Y1	Z1	X2	Y2	Z2	X3	Y3	Z3	X4	Y4	Z4	X5	Y5	Z5	X6	Y6	Z6	X7	Y7	Z7	X8	Y8	Z8	X9	Y9	Z9	X10	Y10	Z10	X11	Y11	Z11	X12	Y12	Z12	X13	Y13	Z13	X14	Y14	Z14	X15	Y15	Z15	X16	Y16	Z16	X17	Y17	Z17	X18	Y18	Z18	X19	Y19	Z19	X20	Y20	Z20	X21	Y21	Z21	X22	Y22	Z22	X23	Y23	Z23	X24	Y24	Z24	X25	Y25	Z25	X26	Y26	Z26	X27	Y27	Z27	X28	Y28	Z28	X29	Y29	Z29
																																																																																								
1	0	764.948	168.091	1090.86	774.105	168.617	1794.86	214.388	171.062	1098.26	577.521	1643.05	1425.7	383.519	1473.56	1433.85	330.651	1340.42	1442.5	546.537	1361.77	1435.94	449.959	1466.87	1291.94	555.309	1194.81	1175.81	462.052	1472.24	1592.31	572.126	1187	1710.34	494.129	1020.98	1322.24	494.237	998.758	1558.34	296.082	1079.17	1377.77	296.039	1075.61	1503.44	404.975	980.248	1266.8	505.685	765.273	1294.55	534.975	630.396	1311.41	568.762	378.284	1331.17	552.494	276.406	1339.75	520.372	235.887	1340.76	732.349	244.629	1373	409.579	970.056	1610.11	413.305	826.385	1583.77	297.284	606.017	1574.94	233.995	502.642	1569.28	33.9806	346.446	1543.23	-21.5118	344.632	1538.98	126.022	211.449	1500.77
2	0.01	764.961	168.084	1090.84	774.118	168.63	1794.84	214.421	171.042	1098.28	577.885	1643.78	1424.54	384.33	1474.01	1432.9	331.601	1340.84	1441.7	547.41	1362.26	1435.01	450.741	1467.14	1290.91	555.251	1194.34	1175.35	462.934	1472.81	1591.5	571.872	1187.15	1709.72	495.333	1021.87	1321.72	495.49	998.899	1557.45	297.325	1080.12	1377.54	297.34	1075.92	1503.18	406.073	981.515	1266.27	506.401	766.043	1293.86	534.875	630.704	1310.99	565.195	377.925	1331.1	547.228	276.389	1339.94	514.413	236.13	1340.75	726.586	242.753	1373.26	411.024	969.861	1609.36	415.983	826.035	1582.86	302.535	604.273	1574.43	237.661	501.971	1569.38	34.8674	350.071	1543.72	-20.4181	350.526	1539.43	120.972	210.833	1501.03
3	0.02	764.975	168.077	1090.83	774.135	168.64	1794.82	214.458	171.016	1098.3	578.34	1644.79	1423.11	385.34	1474.68	1431.8	332.758	1341.48	1440.8	548.507	1362.99	1433.89	451.717	1467.59	1289.72	555.216	1193.95	1174.83	464.058	1473.64	1590.51	571.601	1187.45	1708.94	496.708	1023.1	1320.96	497.023	999.21	1556.33	298.733	1081.3	1377.31	298.888	1076.36	1502.91	407.297	983.107	1265.61	506.997	766.926	1293.02	534.357	631	1310.42	560.411	377.5	1330.99	540.403	276.419	1340.21	506.844	236.408	1340.76	719.237	240.746	1373.55	412.822	969.722	1608.38	419.43	825.726	1581.73	309.427	602.207	1573.84	242.756	501.222	1569.42	36.6108	354.743	1544.34	-18.3044	358.036	1539.97	115.015	210.215	1501.42
4	0.03	764.987	168.071	1090.81	774.155	168.643	1794.79	214.491	170.987	1098.32	578.866	1646.07	1421.52	386.497	1475.57	1430.66	334.056	1342.36	1439.88	549.779	1364	1432.65	452.833	1468.27	1288.46	555.223	1193.74	1174.27	465.371	1474.73	1589.4	571.35	1187.94	1708.03	498.137	1024.65	1319.94	498.748	999.749	1555.01	300.182	1082.66	1377.09	300.564	1076.94	1502.64	408.531	984.943	1264.84	507.272	767.829	1292.05	533.227	631.227	1309.73	554.47	377.039	1330.86	532.221	276.512	1340.55	497.949	236.699	1340.79	710.56	238.806	1373.84	414.877	969.705	1607.23	423.531	825.551	1580.46	317.808	599.986	1573.19	249.304	500.482	1569.37	39.4528	360.288	1545.06	-14.8957	366.844	1540.59	108.662	209.75	1501.98
5	0.04	764.996	168.066	1090.8	774.177	168.637	1794.75	214.511	170.959	1098.34	579.442	1647.61	1419.84	387.74	1476.7	1429.56	335.425	1343.49	1439	551.169	1365.31	1431.38	454.029	1469.21	1287.22	555.291	1193.81	1173.71	466.792	1476.08	1588.24	571.157	1188.67	1707.04	499.511	1026.48	1318.68	500.558	1000.56	1553.58	301.566	1084.12	1376.88	302.237	1077.67	1502.38	409.668	986.915	1264	507.023	768.655	1291.01	531.311	631.343	1308.92	547.513	376.574	1330.69	522.982	276.674	1340.94	488.09	236.988	1340.84	700.894	237.07	1374.1	417.071	969.877	1605.96	428.123	825.603	1579.12	327.432	597.805	1572.48	257.233	499.851	1569.18	43.5632	366.446	1545.84	-10.0178	376.498	1541.24	102.552	209.639	1502.69
6	0.05	765	168.063	1090.79	774.201	168.621	1794.72	214.516	170.935	1098.35	580.047	1649.37	1418.17	389.006	1478.06	1428.57	336.798	1344.86	1438.21	552.624	1366.92	1430.16	455.244	1470.4	1286.08	555.428	1194.21	1173.17	468.231	1477.67	1587.09	571.05	1189.68	1706.04	500.749	1028.5	1317.22	502.355	1001.66	1552.13	302.822	1085.65	1376.65	303.801	1078.54	1502.12	410.639	988.921	1263.13	506.083	769.32	1289.91	528.476	631.327	1308.03	539.719	376.132	1330.49	512.999	276.9	1341.36	477.614	237.271	1340.91	690.569	235.6	1374.33	419.284	970.297	1604.63	433.034	825.965	1577.8	338.016	595.853	1571.69	266.395	499.421	1568.8	49.0087	372.937	1546.6	-3.6406	386.495	1541.87	97.3827	210.108	1503.52
7	0.06	765.001	168.061	1090.79	774.223	168.602	1794.68	214.507	170.919	1098.35	580.663	1651.3	1416.59	390.24	1479.6	1427.75	338.117	1346.43	1437.53	554.101	1368.82	1429.04	456.431	1471.83	1285.09	555.637	1194.97	1172.69	469.599	1479.45	1586	571.051	1191	1705.07	501.803	1030.63	1315.64	504.062	1003.06	1550.76	303.933	1087.22	1376.4	305.193	1079.58	1501.84	411.409	990.883	1262.27	504.345	769.786	1288.76	524.657	631.185	1307.07	531.275	375.731	1330.25	502.551	277.178	1341.76	466.805	237.551	1341	679.862	234.397	1374.54	421.415	971.013	1603.32	438.108	826.695	1576.59	349.29	594.29	1570.82	276.584	499.268	1568.22	55.7448	379.511	1547.25	4.1099	396.344	1542.44	93.8696	211.362	1504.43
8	0.07	764.997	168.062	1090.79	774.239	168.586	1794.66	214.493	170.915	1098.35	581.275	1653.34	1415.16	391.396	1481.31	1427.12	339.337	1348.18	1436.93	555.562	1370.98	1428.08	457.557	1473.48	1284.24	555.915	1196.07	1172.24	470.82	1481.39	1585	571.172	1192.62	1704.2	502.653	1032.77	1314.05	505.635	1004.75	1549.52	304.912	1088.85	1376.08	306.392	1080.79	1501.5	411.973	992.754	1261.44	501.78	770.06	1287.57	519.868	630.954	1306.05	522.347	375.391	1329.98	491.861	277.497	1342.13	455.866	237.838	1341.11	668.978	233.423	1374.73	423.395	972.059	1602.08	443.22	827.827	1575.52	361.017	593.241	1569.89	287.564	499.451	1567.43	63.6364	385.969	1547.72	12.9812	405.619	1542.93	92.6858	213.515	1505.34
9	0.08	764.992	168.066	1090.79	774.248	168.583	1794.66	214.48	170.925	1098.35	581.869	1655.45	1413.93	392.438	1483.15	1426.64	340.424	1350.06	1436.39	556.971	1373.37	1427.28	458.603	1475.32	1283.55	556.262	1197.49	1171.85	471.84	1483.44	1584.11	571.416	1194.53	1703.43	503.299	1034.84	1312.53	507.056	1006.68	1548.43	305.783	1090.55	1375.68	307.412	1082.2	1501.1	412.337	994.52	1260.66	498.436	770.19	1286.34	514.192	630.687	1305.01	513.075	375.137	1329.68	481.091	277.842	1342.45	444.929	238.145	1341.23	658.054	232.628	1374.89	425.188	973.446	1600.95	448.283	829.365	1574.63	373.007	592.785	1568.91	299.096	500.015	1566.46	72.5014	392.151	1547.96	22.6655	413.976	1543.35	94.3643	216.533	1506.16
10	0.09	764.985	168.075	1090.79	774.249	168.6	1794.67	214.47	170.953	1098.33	582.437	1657.58	1412.92	393.341	1485.07	1426.29	341.354	1352.04	1435.87	558.29	1375.92	1426.65	459.561	1477.29	1282.98	556.676	1199.15	1171.5	472.629	1485.55	1583.33	571.781	1196.66	1702.77	503.754	1036.8	1311.15	508.331	1008.83	1547.48	306.559	1092.34	1375.2	308.286	1083.81	1500.63	412.513	996.184	1259.96	494.419	770.246	1285.1	507.768	630.439	1303.98	503.57	374.995	1329.34	470.346	278.203	1342.71	434.067	238.481	1341.36	647.173	231.961	1375.01	426.794	975.166	1599.97	453.256	831.291	1573.92	385.118	592.96	1567.91	310.964	500.997	1565.34	82.1622	397.906	1547.99	32.8863	421.162	1543.74	99.1966	220.223	1506.8
11	0.1	764.979	168.09	1090.8	774.244	168.638	1794.71	214.464	170.998	1098.31	582.968	1659.69	1412.17	394.095	1487.04	1425.98	342.114	1354.08	1435.34	559.472	1378.57	1426.18	460.429	1479.35	1282.51	557.159	1201.02	1171.2	473.175	1487.68	1582.67	572.252	1198.97	1702.21	504.036	1038.61	1309.95	509.479	1011.15	1546.64	307.242	1094.22	1374.68	309.05	1085.61	1500.12	412.51	997.762	1259.34	489.875	770.301	1283.87	500.755	630.253	1302.97	493.912	374.98	1328.97	459.674	278.577	1342.94	423.301	238.854	1341.5	636.373	231.379	1375.11	428.243	977.185	1599.14	458.133	833.57	1573.36	397.248	593.761	1566.91	323.008	502.422	1564.13	92.4781	403.083	1547.84	43.4539	427.013	1544.11	107.184	224.281	1507.21
12	0.11	764.974	168.111	1090.8	774.237	168.69	1794.75	214.458	171.058	1098.28	583.457	1661.74	1411.67	394.695	1489.05	1425.68	342.705	1356.14	1434.77	560.476	1381.26	1425.84	461.209	1481.47	1282.11	557.704	1203.02	1170.95	473.487	1489.77	1582.12	572.806	1201.36	1701.69	504.156	1040.26	1308.92	510.529	1013.59	1545.87	307.82	1096.16	1374.16	309.738	1087.56	1499.62	412.329	999.269	1258.81	484.955	770.41	1282.68	493.304	630.141	1302.02	484.157	375.099	1328.59	449.092	278.96	1343.14	412.62	239.264	1341.65	625.658	230.846	1375.18	429.587	979.45	1598.46	462.935	836.154	1572.93	409.321	595.146	1565.9	335.124	504.291	1562.86	103.351	407.53	1547.59	54.2721	431.451	1544.49	118.074	228.364	1507.35
13	0.12	764.97	168.136	1090.81	774.23	168.747	1794.8	214.45	171.127	1098.23	583.895	1663.7	1411.42	395.148	1491.04	1425.35	343.136	1358.18	1434.14	561.26	1383.91	1425.62	461.901	1483.6	1281.76	558.301	1205.11	1170.75	473.585	1491.79	1581.65	573.411	1203.76	1701.19	504.118	1041.78	1308.04	511.511	1016.11	1545.12	308.273	1098.13	1373.69	310.379	1089.61	1499.17	411.968	1000.71	1258.38	479.803	770.606	1281.58	485.542	630.096	1301.17	474.336	375.341	1328.23	438.602	279.341	1343.33	401.998	239.707	1341.82	615.013	230.332	1375.24	430.884	981.896	1597.92	467.694	838.991	1572.61	421.28	597.046	1564.88	347.266	506.557	1561.6	114.713	411.115	1547.27	65.3116	434.468	1544.86	131.458	232.162	1507.27
14	0.13	764.968	168.163	1090.82	774.224	168.801	1794.84	214.441	171.2	1098.18	584.278	1665.55	1411.39	395.462	1493	1424.98	343.422	1360.18	1433.45	561.799	1386.46	1425.48	462.507	1485.7	1281.44	558.933	1207.24	1170.58	473.499	1493.7	1581.26	574.024	1206.08	1700.65	503.919	1043.17	1307.27	512.45	1018.64	1544.33	308.582	1100.05	1373.34	310.993	1091.69	1498.84	411.417	1002.07	1258.05	474.526	770.889	1280.61	477.565	630.104	1300.46	464.465	375.69	1327.91	428.198	279.712	1343.54	391.411	240.179	1342.02	604.413	229.818	1375.29	432.187	984.447	1597.49	472.434	842.029	1572.37	433.081	599.378	1563.82	359.418	509.129	1560.37	126.516	413.747	1546.95	76.5821	436.106	1545.18	146.879	235.449	1507.03
